<svg width="97" height="14" viewBox="0 0 97 14" fill="none" xmlns="http://www.w3.org/2000/svg">
<path d="M6.6582 6.91211H7.65625C7.65625 7.6276 7.45117 8.16536 7.04102 8.52539C6.63542 8.88086 6.08398 9.05859 5.38672 9.05859C4.90365 9.05859 4.48438 8.94694 4.12891 8.72363C3.77799 8.50033 3.50456 8.19043 3.30859 7.79395C3.11719 7.39746 3.02148 6.93717 3.02148 6.41309V5.62695C3.02148 5.10286 3.11719 4.64258 3.30859 4.24609C3.50456 3.84961 3.77799 3.53971 4.12891 3.31641C4.48438 3.0931 4.90365 2.98145 5.38672 2.98145C6.08398 2.98145 6.6377 3.15918 7.04785 3.51465C7.45801 3.87012 7.66309 4.4056 7.66309 5.12109H6.66504C6.66504 4.66992 6.55566 4.34635 6.33691 4.15039C6.12272 3.95443 5.80599 3.85645 5.38672 3.85645C5.08594 3.85645 4.83301 3.93164 4.62793 4.08203C4.42285 4.23242 4.2679 4.44206 4.16309 4.71094C4.05827 4.97526 4.00586 5.27832 4.00586 5.62012V6.41309C4.00586 6.75944 4.05827 7.06706 4.16309 7.33594C4.2679 7.60026 4.42285 7.80762 4.62793 7.95801C4.83301 8.1084 5.08594 8.18359 5.38672 8.18359C5.80599 8.18359 6.12272 8.08561 6.33691 7.88965C6.55111 7.69368 6.6582 7.36784 6.6582 6.91211ZM1.41504 6.0166C1.41504 6.62272 1.51986 7.18783 1.72949 7.71191C1.93913 8.236 2.23079 8.69401 2.60449 9.08594C2.97819 9.47786 3.41113 9.7832 3.90332 10.002C4.39551 10.2207 4.92188 10.3301 5.48242 10.3301C6.04297 10.3301 6.56706 10.2207 7.05469 10.002C7.54688 9.7832 7.97754 9.47786 8.34668 9.08594C8.72038 8.69401 9.01204 8.236 9.22168 7.71191C9.43132 7.18783 9.53613 6.62272 9.53613 6.0166C9.53613 5.40592 9.43132 4.84082 9.22168 4.32129C9.01204 3.80176 8.72038 3.34831 8.34668 2.96094C7.97754 2.56901 7.54688 2.26595 7.05469 2.05176C6.56706 1.83301 6.04297 1.72363 5.48242 1.72363C4.92188 1.72363 4.39551 1.83301 3.90332 2.05176C3.41113 2.26595 2.97819 2.56901 2.60449 2.96094C2.23079 3.34831 1.93913 3.80176 1.72949 4.32129C1.51986 4.84082 1.41504 5.40592 1.41504 6.0166ZM0.628906 6.0166C0.628906 5.29199 0.754232 4.61979 1.00488 4C1.25553 3.38021 1.60417 2.84017 2.05078 2.37988C2.4974 1.91504 3.01237 1.55501 3.5957 1.2998C4.18359 1.04004 4.8125 0.910156 5.48242 0.910156C6.15234 0.910156 6.77897 1.04004 7.3623 1.2998C7.9502 1.55501 8.46517 1.91504 8.90723 2.37988C9.35384 2.84017 9.70247 3.38021 9.95312 4C10.2038 4.61979 10.3291 5.29199 10.3291 6.0166C10.3291 6.74121 10.2038 7.41341 9.95312 8.0332C9.70247 8.65299 9.35384 9.19759 8.90723 9.66699C8.46517 10.1318 7.9502 10.4941 7.3623 10.7539C6.77897 11.0137 6.15234 11.1436 5.48242 11.1436C4.8125 11.1436 4.18359 11.0137 3.5957 10.7539C3.01237 10.4941 2.4974 10.1318 2.05078 9.66699C1.60417 9.19759 1.25553 8.65299 1.00488 8.0332C0.754232 7.41341 0.628906 6.74121 0.628906 6.0166ZM21.8271 9.96094V11H15.3125V10.0908L18.5732 6.46094C18.9743 6.01432 19.2842 5.63607 19.5029 5.32617C19.7262 5.01172 19.8812 4.73145 19.9678 4.48535C20.0589 4.2347 20.1045 3.97949 20.1045 3.71973C20.1045 3.3916 20.0361 3.09538 19.8994 2.83105C19.7673 2.56217 19.5713 2.34798 19.3115 2.18848C19.0518 2.02897 18.7373 1.94922 18.3682 1.94922C17.9261 1.94922 17.557 2.03581 17.2607 2.20898C16.9691 2.3776 16.7503 2.61458 16.6045 2.91992C16.4587 3.22526 16.3857 3.57617 16.3857 3.97266H15.1211C15.1211 3.41211 15.2441 2.89941 15.4902 2.43457C15.7363 1.96973 16.1009 1.60059 16.584 1.32715C17.0671 1.04915 17.6618 0.910156 18.3682 0.910156C18.9971 0.910156 19.5348 1.02181 19.9814 1.24512C20.4281 1.46387 20.7699 1.77376 21.0068 2.1748C21.2484 2.57129 21.3691 3.03613 21.3691 3.56934C21.3691 3.861 21.319 4.15723 21.2188 4.45801C21.123 4.75423 20.9886 5.05046 20.8154 5.34668C20.6468 5.6429 20.4486 5.93457 20.2207 6.22168C19.9974 6.50879 19.7581 6.79134 19.5029 7.06934L16.8369 9.96094H21.8271ZM29.4287 5.23047V6.74805C29.4287 7.5638 29.3558 8.25195 29.21 8.8125C29.0641 9.37305 28.8545 9.82422 28.5811 10.166C28.3076 10.5078 27.9772 10.7562 27.5898 10.9111C27.207 11.0615 26.7741 11.1367 26.291 11.1367C25.9082 11.1367 25.555 11.0889 25.2314 10.9932C24.9079 10.8975 24.6162 10.7448 24.3564 10.5352C24.1012 10.321 23.8825 10.043 23.7002 9.70117C23.5179 9.35938 23.3789 8.94466 23.2832 8.45703C23.1875 7.9694 23.1396 7.39974 23.1396 6.74805V5.23047C23.1396 4.41471 23.2126 3.73112 23.3584 3.17969C23.5088 2.62826 23.7207 2.1862 23.9941 1.85352C24.2676 1.51628 24.5957 1.27474 24.9785 1.12891C25.3659 0.983073 25.7988 0.910156 26.2773 0.910156C26.6647 0.910156 27.0202 0.958008 27.3438 1.05371C27.6719 1.14486 27.9635 1.29297 28.2188 1.49805C28.474 1.69857 28.6904 1.96745 28.8682 2.30469C29.0505 2.63737 29.1895 3.04525 29.2852 3.52832C29.3809 4.01139 29.4287 4.57878 29.4287 5.23047ZM28.1572 6.95312V5.01855C28.1572 4.57194 28.1299 4.18001 28.0752 3.84277C28.0251 3.50098 27.9499 3.20931 27.8496 2.96777C27.7493 2.72624 27.6217 2.53027 27.4668 2.37988C27.3164 2.22949 27.141 2.12012 26.9404 2.05176C26.7445 1.97884 26.5234 1.94238 26.2773 1.94238C25.9766 1.94238 25.71 1.99935 25.4775 2.11328C25.2451 2.22266 25.0492 2.39811 24.8896 2.63965C24.7347 2.88118 24.6162 3.19792 24.5342 3.58984C24.4521 3.98177 24.4111 4.45801 24.4111 5.01855V6.95312C24.4111 7.39974 24.4362 7.79395 24.4863 8.13574C24.541 8.47754 24.6208 8.77376 24.7256 9.02441C24.8304 9.27051 24.958 9.47331 25.1084 9.63281C25.2588 9.79232 25.432 9.91081 25.6279 9.98828C25.8285 10.0612 26.0495 10.0977 26.291 10.0977C26.6009 10.0977 26.8721 10.0384 27.1045 9.91992C27.3369 9.80143 27.5306 9.61686 27.6855 9.36621C27.8451 9.111 27.9635 8.78516 28.041 8.38867C28.1185 7.98763 28.1572 7.50911 28.1572 6.95312ZM37.5771 9.96094V11H31.0625V10.0908L34.3232 6.46094C34.7243 6.01432 35.0342 5.63607 35.2529 5.32617C35.4762 5.01172 35.6312 4.73145 35.7178 4.48535C35.8089 4.2347 35.8545 3.97949 35.8545 3.71973C35.8545 3.3916 35.7861 3.09538 35.6494 2.83105C35.5173 2.56217 35.3213 2.34798 35.0615 2.18848C34.8018 2.02897 34.4873 1.94922 34.1182 1.94922C33.6761 1.94922 33.307 2.03581 33.0107 2.20898C32.7191 2.3776 32.5003 2.61458 32.3545 2.91992C32.2087 3.22526 32.1357 3.57617 32.1357 3.97266H30.8711C30.8711 3.41211 30.9941 2.89941 31.2402 2.43457C31.4863 1.96973 31.8509 1.60059 32.334 1.32715C32.8171 1.04915 33.4118 0.910156 34.1182 0.910156C34.7471 0.910156 35.2848 1.02181 35.7314 1.24512C36.1781 1.46387 36.5199 1.77376 36.7568 2.1748C36.9984 2.57129 37.1191 3.03613 37.1191 3.56934C37.1191 3.861 37.069 4.15723 36.9688 4.45801C36.873 4.75423 36.7386 5.05046 36.5654 5.34668C36.3968 5.6429 36.1986 5.93457 35.9707 6.22168C35.7474 6.50879 35.5081 6.79134 35.2529 7.06934L32.5869 9.96094H37.5771ZM45.6572 7.65039V8.68945H38.4658V7.94434L42.9229 1.04688H43.9551L42.8477 3.04297L39.9014 7.65039H45.6572ZM44.2695 1.04688V11H43.0049V1.04688H44.2695ZM51.0234 1.04688H52.3018L55.5625 9.16113L58.8164 1.04688H60.1016L56.0547 11H55.0566L51.0234 1.04688ZM50.6064 1.04688H51.7344L51.9189 7.11719V11H50.6064V1.04688ZM59.3838 1.04688H60.5117V11H59.1992V7.11719L59.3838 1.04688ZM65.707 11.1367C65.1921 11.1367 64.7249 11.0501 64.3057 10.877C63.891 10.6992 63.5332 10.4508 63.2324 10.1318C62.9362 9.81283 62.7083 9.43457 62.5488 8.99707C62.3893 8.55957 62.3096 8.08105 62.3096 7.56152V7.27441C62.3096 6.67285 62.3984 6.13737 62.5762 5.66797C62.7539 5.19401 62.9954 4.79297 63.3008 4.46484C63.6061 4.13672 63.9525 3.88835 64.3398 3.71973C64.7272 3.55111 65.1283 3.4668 65.543 3.4668C66.0716 3.4668 66.5273 3.55794 66.9102 3.74023C67.2975 3.92253 67.6143 4.17773 67.8604 4.50586C68.1064 4.82943 68.2887 5.21224 68.4072 5.6543C68.5257 6.0918 68.585 6.57031 68.585 7.08984V7.65723H63.0615V6.625H67.3203V6.5293C67.3021 6.20117 67.2337 5.88216 67.1152 5.57227C67.0013 5.26237 66.819 5.00716 66.5684 4.80664C66.3177 4.60612 65.9759 4.50586 65.543 4.50586C65.2559 4.50586 64.9915 4.56738 64.75 4.69043C64.5085 4.80892 64.3011 4.98665 64.1279 5.22363C63.9548 5.46061 63.8203 5.75 63.7246 6.0918C63.6289 6.43359 63.5811 6.8278 63.5811 7.27441V7.56152C63.5811 7.91243 63.6289 8.24284 63.7246 8.55273C63.8249 8.85807 63.9684 9.12695 64.1553 9.35938C64.3467 9.5918 64.5768 9.77409 64.8457 9.90625C65.1191 10.0384 65.429 10.1045 65.7754 10.1045C66.222 10.1045 66.6003 10.0133 66.9102 9.83105C67.2201 9.64876 67.4912 9.40495 67.7236 9.09961L68.4893 9.70801C68.3298 9.94954 68.127 10.1797 67.8809 10.3984C67.6348 10.6172 67.3317 10.7949 66.9717 10.9316C66.6162 11.0684 66.1947 11.1367 65.707 11.1367ZM73.1309 11.1367C72.6159 11.1367 72.1488 11.0501 71.7295 10.877C71.3148 10.6992 70.957 10.4508 70.6562 10.1318C70.36 9.81283 70.1322 9.43457 69.9727 8.99707C69.8132 8.55957 69.7334 8.08105 69.7334 7.56152V7.27441C69.7334 6.67285 69.8223 6.13737 70 5.66797C70.1777 5.19401 70.4193 4.79297 70.7246 4.46484C71.0299 4.13672 71.3763 3.88835 71.7637 3.71973C72.151 3.55111 72.5521 3.4668 72.9668 3.4668C73.4954 3.4668 73.9512 3.55794 74.334 3.74023C74.7214 3.92253 75.0381 4.17773 75.2842 4.50586C75.5303 4.82943 75.7126 5.21224 75.8311 5.6543C75.9495 6.0918 76.0088 6.57031 76.0088 7.08984V7.65723H70.4854V6.625H74.7441V6.5293C74.7259 6.20117 74.6576 5.88216 74.5391 5.57227C74.4251 5.26237 74.2428 5.00716 73.9922 4.80664C73.7415 4.60612 73.3997 4.50586 72.9668 4.50586C72.6797 4.50586 72.4154 4.56738 72.1738 4.69043C71.9323 4.80892 71.7249 4.98665 71.5518 5.22363C71.3786 5.46061 71.2441 5.75 71.1484 6.0918C71.0527 6.43359 71.0049 6.8278 71.0049 7.27441V7.56152C71.0049 7.91243 71.0527 8.24284 71.1484 8.55273C71.2487 8.85807 71.3923 9.12695 71.5791 9.35938C71.7705 9.5918 72.0007 9.77409 72.2695 9.90625C72.543 10.0384 72.8529 10.1045 73.1992 10.1045C73.6458 10.1045 74.0241 10.0133 74.334 9.83105C74.6439 9.64876 74.915 9.40495 75.1475 9.09961L75.9131 9.70801C75.7536 9.94954 75.5508 10.1797 75.3047 10.3984C75.0586 10.6172 74.7555 10.7949 74.3955 10.9316C74.04 11.0684 73.6185 11.1367 73.1309 11.1367ZM80.582 3.60352V4.57422H76.583V3.60352H80.582ZM77.9365 1.80566H79.2012V9.16797C79.2012 9.41862 79.2399 9.60775 79.3174 9.73535C79.3949 9.86296 79.4951 9.94727 79.6182 9.98828C79.7412 10.0293 79.8734 10.0498 80.0146 10.0498C80.1195 10.0498 80.2288 10.0407 80.3428 10.0225C80.4613 9.99967 80.5501 9.98145 80.6094 9.96777L80.6162 11C80.516 11.0319 80.3838 11.0615 80.2197 11.0889C80.0602 11.1208 79.8665 11.1367 79.6387 11.1367C79.3288 11.1367 79.0439 11.0752 78.7842 10.9521C78.5244 10.8291 78.3171 10.624 78.1621 10.3369C78.0117 10.0452 77.9365 9.65332 77.9365 9.16113V1.80566ZM86.5908 9.29102V3.60352H87.8623V11H86.6523L86.5908 9.29102ZM86.8301 7.73242L87.3564 7.71875C87.3564 8.21094 87.304 8.66667 87.1992 9.08594C87.099 9.50065 86.9349 9.86068 86.707 10.166C86.4792 10.4714 86.1807 10.7106 85.8115 10.8838C85.4424 11.0524 84.9935 11.1367 84.4648 11.1367C84.1048 11.1367 83.7744 11.0843 83.4736 10.9795C83.1774 10.8747 82.9222 10.7129 82.708 10.4941C82.4938 10.2754 82.3275 9.99056 82.209 9.63965C82.0951 9.28874 82.0381 8.86719 82.0381 8.375V3.60352H83.3027V8.38867C83.3027 8.72135 83.3392 8.99707 83.4121 9.21582C83.4896 9.43001 83.5921 9.60091 83.7197 9.72852C83.8519 9.85156 83.9977 9.93815 84.1572 9.98828C84.3213 10.0384 84.4899 10.0635 84.6631 10.0635C85.2008 10.0635 85.627 9.96094 85.9414 9.75586C86.2559 9.54622 86.4814 9.26595 86.6182 8.91504C86.7594 8.55957 86.8301 8.16536 86.8301 7.73242ZM91.0547 5.02539V13.8438H89.7832V3.60352H90.9453L91.0547 5.02539ZM96.0381 7.24023V7.38379C96.0381 7.92155 95.9743 8.42057 95.8467 8.88086C95.7191 9.33659 95.5322 9.73307 95.2861 10.0703C95.0446 10.4076 94.7461 10.6696 94.3906 10.8564C94.0352 11.0433 93.6273 11.1367 93.167 11.1367C92.6976 11.1367 92.2829 11.0592 91.9229 10.9043C91.5628 10.7493 91.2575 10.5238 91.0068 10.2275C90.7562 9.93132 90.5557 9.57585 90.4053 9.16113C90.2594 8.74642 90.1592 8.2793 90.1045 7.75977V6.99414C90.1592 6.44727 90.2617 5.95736 90.4121 5.52441C90.5625 5.09147 90.7607 4.72233 91.0068 4.41699C91.2575 4.1071 91.5605 3.8724 91.916 3.71289C92.2715 3.54883 92.6816 3.4668 93.1465 3.4668C93.6113 3.4668 94.0238 3.55794 94.3838 3.74023C94.7438 3.91797 95.0469 4.17318 95.293 4.50586C95.5391 4.83854 95.7236 5.2373 95.8467 5.70215C95.9743 6.16243 96.0381 6.67513 96.0381 7.24023ZM94.7666 7.38379V7.24023C94.7666 6.87109 94.7279 6.52474 94.6504 6.20117C94.5729 5.87305 94.4521 5.58594 94.2881 5.33984C94.1286 5.08919 93.9235 4.89323 93.6729 4.75195C93.4222 4.60612 93.1237 4.5332 92.7773 4.5332C92.4583 4.5332 92.1803 4.58789 91.9434 4.69727C91.7109 4.80664 91.5127 4.95475 91.3486 5.1416C91.1846 5.32389 91.0501 5.53353 90.9453 5.77051C90.8451 6.00293 90.7699 6.24447 90.7197 6.49512V8.26562C90.8109 8.58464 90.9385 8.88542 91.1025 9.16797C91.2666 9.44596 91.4854 9.67155 91.7588 9.84473C92.0322 10.0133 92.3763 10.0977 92.791 10.0977C93.1328 10.0977 93.4268 10.027 93.6729 9.88574C93.9235 9.73991 94.1286 9.54167 94.2881 9.29102C94.4521 9.04036 94.5729 8.75326 94.6504 8.42969C94.7279 8.10156 94.7666 7.75293 94.7666 7.38379Z" fill="white"/>
</svg>
