<svg width="18" height="18" viewBox="0 0 18 18" fill="none" xmlns="http://www.w3.org/2000/svg">
<path fill-rule="evenodd" clip-rule="evenodd" d="M9.00033 16.0837C9.76949 16.0837 10.6793 15.5575 11.464 14.2497C11.6935 13.8673 11.9004 13.4342 12.0779 12.9587H5.92273C6.10022 13.4342 6.30719 13.8673 6.53666 14.2497C7.32132 15.5575 8.23116 16.0837 9.00033 16.0837ZM5.54964 11.7087C5.35852 10.8802 5.25033 9.96758 5.25033 9.00033C5.25033 8.03308 5.35852 7.12042 5.54964 6.29199H12.451C12.6422 7.12042 12.7503 8.03308 12.7503 9.00033C12.7503 9.96758 12.6422 10.8802 12.451 11.7087H5.54964ZM13.4013 12.9587C13.1162 13.8377 12.7389 14.6216 12.2912 15.2744C13.3324 14.7272 14.2207 13.9283 14.8753 12.9587H13.4013ZM15.5474 11.7087H13.7303C13.9053 10.8595 14.0003 9.94841 14.0003 9.00033C14.0003 8.05224 13.9053 7.14113 13.7303 6.29199H15.5474C15.893 7.12634 16.0837 8.04108 16.0837 9.00033C16.0837 9.95958 15.893 10.8743 15.5474 11.7087ZM4.27032 11.7087H2.4532C2.10768 10.8743 1.91699 9.95958 1.91699 9.00033C1.91699 8.04108 2.10768 7.12634 2.4532 6.29199H4.27032C4.09533 7.14113 4.00033 8.05224 4.00033 9.00033C4.00033 9.94841 4.09533 10.8595 4.27032 11.7087ZM3.12535 12.9587H4.5993C4.88452 13.8377 5.26176 14.6216 5.70951 15.2744C4.66828 14.7272 3.77994 13.9283 3.12535 12.9587ZM5.92273 5.04199H12.0779C11.9004 4.56643 11.6935 4.13333 11.464 3.75089C10.6793 2.44313 9.76949 1.91699 9.00033 1.91699C8.23116 1.91699 7.32132 2.44313 6.53666 3.75089C6.30719 4.13333 6.10022 4.56643 5.92273 5.04199ZM13.4013 5.04199H14.8753C14.2207 4.07234 13.3324 3.27348 12.2912 2.72621C12.7389 3.3791 13.1162 4.16299 13.4013 5.04199ZM5.70951 2.72621C5.26176 3.37911 4.88451 4.16299 4.5993 5.04199H3.12534C3.77994 4.07234 4.66828 3.27348 5.70951 2.72621ZM9.00033 0.666992C13.6027 0.666992 17.3337 4.39795 17.3337 9.00033C17.3337 13.6027 13.6027 17.3337 9.00033 17.3337C4.39795 17.3337 0.666992 13.6027 0.666992 9.00033C0.666992 4.39795 4.39795 0.666992 9.00033 0.666992Z" fill="#212121"/>
</svg>
